<svg width="1064" height="864" viewBox="0 0 1064 864" fill="none" xmlns="http://www.w3.org/2000/svg">
<g id="undraw_date_night_bda8 1">
<g id="undraw_work_from_anywhere_re_s2i6 1" clip-path="url(#clip0_0_1)">
<path id="leaf-2" d="M111.801 646.188C115.103 647.403 118.658 647.707 122.11 647.069C125.563 646.431 128.792 644.874 131.473 642.554C138.363 636.49 140.524 626.5 142.281 617.249C144.014 608.129 145.747 599.008 147.48 589.888L136.595 597.746C128.768 603.398 120.763 609.231 115.344 617.417C109.924 625.603 107.558 636.778 111.913 645.636" fill="#E6E6E6"/>
<path id="Vector" d="M112.731 679.314C111.629 670.9 110.497 662.377 111.269 653.873C111.956 646.32 114.153 638.942 118.627 632.894C120.991 629.699 123.881 626.954 127.167 624.78C128.02 624.215 128.806 625.634 127.956 626.196C122.261 629.989 117.88 635.531 115.44 642.031C112.716 649.298 112.278 657.22 112.748 664.94C113.032 669.608 113.633 674.246 114.24 678.878C114.289 679.086 114.26 679.305 114.158 679.492C114.057 679.679 113.891 679.82 113.693 679.887C113.594 679.915 113.489 679.922 113.387 679.908C113.284 679.894 113.186 679.859 113.096 679.806C113.007 679.753 112.929 679.682 112.866 679.597C112.803 679.513 112.757 679.417 112.731 679.314Z" fill="#F2F2F2"/>
<path id="leaf-1" d="M123.343 664.425C124.733 666.667 126.67 668.498 128.961 669.738C131.253 670.978 133.82 671.584 136.409 671.496C143.024 671.167 148.538 666.326 153.502 661.731L168.184 648.138L158.467 647.65C151.479 647.299 144.31 646.972 137.654 649.232C130.998 651.492 124.86 656.93 123.643 664.154" fill="#E6E6E6"/>
<path id="Vector_2" d="M109.618 684.151C114.92 674.313 121.071 663.379 132.061 659.884C135.113 658.916 138.32 658.569 141.501 658.862C142.503 658.953 142.253 660.573 141.253 660.482C135.909 660.022 130.577 661.501 126.188 664.662C121.94 667.693 118.633 671.908 115.833 676.378C114.119 679.115 112.583 681.969 111.047 684.819C110.556 685.73 109.121 685.073 109.618 684.151Z" fill="#F2F2F2"/>
<path id="Vector_3" d="M391.324 390.094C392.555 392.706 392.743 395.707 391.846 398.458C390.95 401.209 389.041 403.491 386.526 404.818C386.011 405.079 385.476 405.295 384.926 405.465L383.131 444.286L367.583 432.364L371.671 397.326C371.151 394.933 371.42 392.431 372.435 390.212C373.451 387.993 375.156 386.182 377.282 385.064C378.523 384.43 379.875 384.058 381.258 383.969C382.642 383.88 384.028 384.075 385.337 384.544C386.645 385.013 387.849 385.745 388.877 386.699C389.906 387.652 390.738 388.806 391.324 390.094Z" fill="#9E616A"/>
<path id="Vector_4" d="M414.048 669.807L424.099 667.725L421.223 626.083L406.388 629.155L414.048 669.807Z" fill="#9E616A"/>
<path id="Vector_5" d="M410.836 666.897L430.631 662.796L430.632 662.796C432.29 662.449 434 662.449 435.658 662.798C437.316 663.146 438.889 663.835 440.281 664.823C443.137 666.831 445.099 669.919 445.738 673.41L445.819 673.84L413.41 680.554L410.836 666.897Z" fill="#2F2E41"/>
<path id="Vector_6" d="M378.81 675.908H389.055L393.929 634.471H378.808L378.81 675.908Z" fill="#9E616A"/>
<path id="Vector_7" d="M376.196 672.401L396.374 672.4C398.07 672.398 399.75 672.747 401.312 673.426C402.874 674.104 404.287 675.098 405.466 676.349C407.895 678.895 409.248 682.32 409.233 685.883V686.321L376.197 686.322L376.196 672.401Z" fill="#2F2E41"/>
<path id="Vector_8" d="M239.858 586.994C228.485 586.988 219.271 577.316 219.276 565.391C219.277 562.516 219.827 559.669 220.895 557.011L223.927 558.357C222.133 562.768 222.093 567.725 223.817 572.166C225.541 576.606 228.892 580.178 233.151 582.117C235.22 583.033 237.445 583.516 239.698 583.54C241.951 583.563 244.185 583.126 246.271 582.253L247.493 585.46C245.07 586.476 242.476 586.997 239.858 586.994Z" fill="#3F3D56"/>
<path id="Vector_9" d="M271.555 586.562H246.033V579.656L266.615 573.613L271.555 586.562Z" fill="#3F3D56"/>
<path id="Vector_10" d="M262.498 579.656H330.007C330.048 583.506 328.597 587.214 325.972 589.966C323.348 592.718 319.765 594.288 316.012 594.331H276.494C272.741 594.288 269.158 592.718 266.534 589.966C263.909 587.214 262.457 583.506 262.498 579.656Z" fill="#3F3D56"/>
<path id="Vector_11" d="M336.373 588.387H261.454C258.814 588.327 256.302 587.21 254.455 585.274C252.609 583.337 251.575 580.737 251.575 578.028C251.575 575.32 252.609 572.719 254.455 570.783C256.302 568.846 258.814 567.729 261.454 567.669H336.373C339.013 567.729 341.525 568.846 343.371 570.783C345.218 572.719 346.252 575.32 346.252 578.028C346.252 580.737 345.218 583.337 343.371 585.274C341.525 587.21 339.013 588.327 336.373 588.387Z" fill="#CACACA"/>
<path id="Vector_12" d="M384.751 428.152L384.608 435.128L383.973 466.465C383.954 468.538 383.537 470.588 382.746 472.496C381.954 474.404 380.804 476.133 379.361 477.585C377.917 479.036 376.209 480.182 374.334 480.956C372.458 481.73 370.452 482.118 368.431 482.096C364.709 482.009 361.151 480.51 358.443 477.888L315.859 435.88C314.173 434.254 312.849 432.274 311.978 430.075C311.107 427.876 310.709 425.509 310.811 423.138C310.913 420.767 311.514 418.446 312.571 416.334C313.628 414.223 315.117 412.37 316.937 410.903C320.001 408.442 323.864 407.27 327.741 407.626C331.618 407.982 335.216 409.84 337.805 412.821L365.929 446.001L368.63 425.15L384.751 428.152Z" fill="#E6E6E6"/>
<path id="Vector_13" d="M395.21 658.856L375.077 660.776L364.096 577.296C327.899 583.682 293.75 585.727 264.212 578.003C259.363 576.689 255.212 573.472 252.657 569.045C250.103 564.618 249.348 559.338 250.558 554.346C250.673 553.856 250.806 553.371 250.957 552.891C254.492 541.828 260.72 529.973 268.011 517.805L316.511 536.037L318.341 543.713L370.073 536.846C372.572 536.54 375.106 536.744 377.528 537.446C379.95 538.149 382.213 539.336 384.186 540.94C386.158 542.544 387.802 544.532 389.022 546.79C390.242 549.048 391.014 551.532 391.294 554.098C391.364 554.674 391.409 555.252 391.431 555.833L395.21 658.856Z" fill="#2F2E41"/>
<path id="Vector_14" d="M425.817 641.277L405.685 643.196L369.182 566.623C332.984 573.008 298.835 575.054 269.298 567.329C264.449 566.016 260.298 562.798 257.743 558.371C255.188 553.945 254.434 548.665 255.644 543.672C255.759 543.182 255.892 542.697 256.042 542.217C259.578 531.155 265.806 519.3 273.096 507.132L329.375 511.989L323.427 533.039L375.158 526.173C377.658 525.867 380.192 526.07 382.614 526.773C385.036 527.476 387.298 528.663 389.271 530.267C391.244 531.87 392.888 533.858 394.108 536.117C395.328 538.375 396.1 540.859 396.38 543.424C396.449 544 396.495 544.579 396.516 545.159L425.817 641.277Z" fill="#2F2E41"/>
<path id="Vector_15" d="M330.958 395.594C344.604 395.594 355.666 383.995 355.666 369.687C355.666 355.379 344.604 343.779 330.958 343.779C317.313 343.779 306.251 355.379 306.251 369.687C306.251 383.995 317.313 395.594 330.958 395.594Z" fill="#9E616A"/>
<path id="Vector_16" d="M359.173 412.316C358.927 412.778 358.865 413.32 359.001 413.828C359.137 414.335 359.459 414.769 359.9 415.038C360.561 415.122 376.087 425.393 376.53 424.217C376.775 424.143 377.003 424.019 377.201 423.853C377.399 423.687 377.563 423.482 377.682 423.25L402.669 375.276C402.806 375.013 402.885 374.722 402.901 374.424C402.917 374.126 402.868 373.829 402.759 373.552C403.45 372.316 385.535 367.575 384.923 367.204C384.505 367.073 384.055 367.095 383.651 367.267C383.247 367.44 382.914 367.751 382.71 368.147L359.173 412.316Z" fill="#3F3D56"/>
<path id="Vector_17" d="M399.081 374.264C399.081 374.264 384.086 369.935 384.339 369.75C383.932 369.733 383.113 369.132 382.852 369.752L360.597 411.825C359.64 412.743 375.371 420.235 375.504 420.679C376.747 421.482 398.718 375.288 399.396 375.051C399.462 374.923 399.477 374.774 399.437 374.636C399.398 374.497 399.307 374.38 399.184 374.309C399.151 374.29 399.117 374.275 399.081 374.264Z" fill="#6C63FF"/>
<path id="Vector_18" d="M344.786 409.888C345.008 409.309 345.154 408.704 345.22 408.086C345.426 406.284 344.929 404.472 343.837 403.045C342.746 401.617 341.148 400.691 339.393 400.467L327.906 399.144C327.037 399.053 326.159 399.139 325.323 399.397C324.487 399.656 323.709 400.081 323.033 400.649C322.358 401.217 321.799 401.916 321.388 402.707C320.977 403.497 320.723 404.363 320.64 405.255C320.471 406.836 320.833 408.429 321.665 409.771C315.776 410.435 310.205 412.853 305.64 416.727C301.076 420.601 297.717 425.761 295.978 431.57C284.629 453.204 276.46 478.228 272.616 507.868L323.612 532.707L343.034 490.097L346.943 483.806C347.704 482.976 348.432 482.147 349.121 481.303C353.144 476.636 356.371 471.307 358.667 465.54C360.268 461.406 361.208 457.034 361.453 452.594C362.231 438.389 355.735 424.152 344.786 409.888Z" fill="#E4E4E4"/>
<path id="Vector_19" opacity="0.2" d="M358.667 465.539C356.371 471.307 353.144 476.636 349.121 481.303C348.432 482.147 347.704 482.976 346.943 483.807L343.034 490.097C328.627 479.02 316.953 435.405 316.953 435.405L333.209 432.162L358.667 465.539Z" fill="black"/>
<path id="Vector_20" d="M368.509 398.014C367.085 400.522 366.672 403.501 367.357 406.317C368.042 409.133 369.771 411.563 372.177 413.091C372.67 413.394 373.188 413.654 373.723 413.869L372.572 452.717L388.974 442.127L387.552 406.86C388.25 404.513 388.171 401.995 387.327 399.699C386.483 397.403 384.922 395.458 382.887 394.168C381.702 393.433 380.385 392.949 379.014 392.744C377.644 392.54 376.247 392.619 374.906 392.978C373.566 393.336 372.309 393.967 371.21 394.832C370.112 395.697 369.193 396.779 368.509 398.014Z" fill="#9E616A"/>
<path id="Vector_21" d="M371.131 438.053L389.168 440.684L388.392 478.996C388.347 481.729 387.622 484.405 386.285 486.769C384.947 489.134 383.043 491.108 380.752 492.505C377.953 494.194 374.695 494.904 371.469 494.528C368.243 494.152 365.223 492.711 362.865 490.422L320.281 448.41C317.285 445.494 315.492 441.512 315.27 437.283C315.049 433.053 316.416 428.897 319.091 425.669C320.415 424.062 322.04 422.744 323.869 421.794C325.699 420.843 327.696 420.279 329.742 420.136C331.788 419.992 333.842 420.271 335.781 420.957C337.72 421.643 339.505 422.721 341.029 424.128C341.45 424.514 341.85 424.923 342.228 425.353L370.347 458.532L371.131 438.053Z" fill="#E6E6E6"/>
<path id="Vector_22" d="M223.583 566.806C219.39 566.753 215.389 564.997 212.456 561.922C209.524 558.847 207.9 554.705 207.941 550.404V458.036C207.895 455.899 208.266 453.775 209.031 451.787C209.797 449.799 210.941 447.988 212.399 446.46C213.856 444.932 215.596 443.718 217.516 442.89C219.437 442.061 221.5 441.634 223.583 441.634C225.667 441.634 227.73 442.061 229.65 442.89C231.571 443.718 233.311 444.932 234.768 446.46C236.225 447.988 237.37 449.799 238.135 451.787C238.901 453.775 239.272 455.899 239.226 458.036V550.404C239.267 554.705 237.643 558.847 234.71 561.922C231.778 564.997 227.776 566.753 223.583 566.806Z" fill="#CACACA"/>
<path id="Vector_23" d="M321.775 675.1H302.839V590.545H296.253V675.1H277.318C274.448 675.132 271.708 676.333 269.701 678.438C267.694 680.542 266.584 683.378 266.615 686.322L332.477 686.322C332.509 683.378 331.399 680.542 329.392 678.438C327.385 676.333 324.645 675.132 321.775 675.1Z" fill="#3F3D56"/>
<path id="Vector_24" d="M352.446 340.329C347.167 337.143 340.741 337.135 334.65 337.215C330.237 337.273 325.824 337.33 321.412 337.388C316.055 337.458 310.401 337.614 305.838 340.556C301.275 343.499 298.51 350.28 301.523 354.924C292.563 346.761 279.144 345.471 267.913 349.498C262.417 351.469 257.216 354.668 253.483 359.334C249.428 364.403 247.317 370.93 246.468 377.486C245.62 384.042 245.951 390.696 246.284 397.303C246.493 401.457 246.953 406.143 250.07 408.716C252.946 411.089 257.161 410.731 260.502 409.162C266.327 406.426 270.354 400.693 273.364 394.791C276.374 388.89 278.669 382.544 282.417 377.127C286.166 371.71 291.82 367.179 298.203 367.101C293.863 373.558 293.071 382.942 297.606 389.249C300.868 393.784 306.311 396.139 311.698 396.737C317.085 397.335 322.507 396.385 327.849 395.437C331.465 394.796 335.719 393.617 336.916 389.982C338.09 386.417 335.573 382.816 334.496 379.218C332.418 372.273 336.682 363.972 343.356 361.97L342.812 361.419C348.338 362.227 354.957 361.478 357.9 356.507C361.112 351.08 357.725 343.514 352.446 340.329Z" fill="#2F2E41"/>
<path id="Vector_25" d="M884.31 166.05H408.819C408.635 166.047 408.459 165.969 408.329 165.834C408.2 165.698 408.128 165.516 408.128 165.327C408.128 165.137 408.2 164.955 408.329 164.82C408.459 164.685 408.635 164.607 408.819 164.603H884.31C884.495 164.607 884.671 164.685 884.8 164.82C884.929 164.955 885.002 165.137 885.002 165.327C885.002 165.516 884.929 165.698 884.8 165.834C884.671 165.969 884.495 166.047 884.31 166.05Z" fill="#CACACA"/>
<path id="dot-left" d="M424.353 155.92C428.545 155.92 431.944 152.356 431.944 147.96C431.944 143.564 428.545 140 424.353 140C420.16 140 416.761 143.564 416.761 147.96C416.761 152.356 420.16 155.92 424.353 155.92Z" fill="#3F3D56"/>
<path id="dot-middle" d="M450.577 155.92C454.769 155.92 458.168 152.356 458.168 147.96C458.168 143.564 454.769 140 450.577 140C446.384 140 442.986 143.564 442.986 147.96C442.986 152.356 446.384 155.92 450.577 155.92Z" fill="#3F3D56"/>
<path id="dot-right" d="M476.801 155.92C480.994 155.92 484.393 152.356 484.393 147.96C484.393 143.564 480.994 140 476.801 140C472.609 140 469.21 143.564 469.21 147.96C469.21 152.356 472.609 155.92 476.801 155.92Z" fill="#3F3D56"/>
<path id="Vector_26" d="M868.597 144.869H849.964C849.595 144.86 849.244 144.704 848.986 144.434C848.729 144.163 848.584 143.8 848.584 143.422C848.584 143.043 848.729 142.68 848.986 142.409C849.244 142.139 849.595 141.983 849.964 141.974H868.597C868.966 141.983 869.317 142.139 869.575 142.409C869.833 142.68 869.978 143.043 869.978 143.422C869.978 143.8 869.833 144.163 869.575 144.434C869.317 144.704 868.966 144.86 868.597 144.869Z" fill="#3F3D56"/>
<path id="Vector_27" d="M868.597 150.296H849.964C849.595 150.288 849.244 150.131 848.986 149.861C848.729 149.59 848.584 149.227 848.584 148.849C848.584 148.47 848.729 148.107 848.986 147.836C849.244 147.566 849.595 147.41 849.964 147.401H868.597C868.966 147.41 869.317 147.566 869.575 147.836C869.833 148.107 869.978 148.47 869.978 148.849C869.978 149.227 869.833 149.59 869.575 149.861C869.317 150.131 868.966 150.288 868.597 150.296Z" fill="#3F3D56"/>
<path id="Vector_28" d="M868.597 155.723H849.964C849.595 155.715 849.244 155.559 848.986 155.288C848.729 155.018 848.584 154.654 848.584 154.276C848.584 153.898 848.729 153.534 848.986 153.264C849.244 152.993 849.595 152.837 849.964 152.829H868.597C868.966 152.837 869.317 152.993 869.575 153.264C869.833 153.534 869.978 153.898 869.978 154.276C869.978 154.654 869.833 155.018 869.575 155.288C869.317 155.559 868.966 155.715 868.597 155.723Z" fill="#3F3D56"/>
<path id="Vector_29" d="M791.134 394.499H483.67C482.144 394.48 480.688 393.841 479.62 392.722C478.553 391.602 477.962 390.095 477.977 388.529V247.047C477.962 245.481 478.553 243.973 479.62 242.854C480.688 241.735 482.144 241.096 483.67 241.076H791.134C792.66 241.096 794.117 241.735 795.184 242.854C796.252 243.973 796.843 245.481 796.828 247.047V388.529C796.843 390.095 796.252 391.602 795.184 392.722C794.117 393.841 792.66 394.48 791.134 394.499Z" fill="#6C63FF"/>
<path id="text-line-1" d="M546.285 290.391C545.252 290.414 544.269 290.852 543.547 291.609C542.824 292.367 542.42 293.385 542.42 294.444C542.42 295.504 542.824 296.522 543.547 297.279C544.269 298.037 545.252 298.474 546.285 298.498H728.519C729.551 298.472 730.532 298.034 731.253 297.277C731.974 296.52 732.378 295.503 732.378 294.444C732.378 293.386 731.974 292.369 731.253 291.612C730.532 290.855 729.551 290.416 728.519 290.391L546.285 290.391Z" fill="white"/>
<path id="text-line-2" d="M546.285 313.877C545.254 313.902 544.272 314.34 543.551 315.098C542.83 315.855 542.427 316.872 542.427 317.93C542.427 318.989 542.83 320.005 543.551 320.763C544.272 321.52 545.254 321.958 546.285 321.984H728.519C729.551 321.958 730.532 321.52 731.253 320.763C731.974 320.005 732.378 318.989 732.378 317.93C732.378 316.872 731.974 315.855 731.253 315.098C730.532 314.34 729.551 313.902 728.519 313.877H546.285Z" fill="white"/>
<path id="text-line-3" d="M546.285 337.078C545.252 337.102 544.269 337.539 543.547 338.296C542.824 339.054 542.42 340.072 542.42 341.131C542.42 342.191 542.824 343.209 543.547 343.967C544.269 344.724 545.252 345.161 546.285 345.185H624.701C625.734 345.161 626.717 344.724 627.44 343.967C628.162 343.209 628.567 342.191 628.567 341.131C628.567 340.072 628.162 339.054 627.44 338.296C626.717 337.539 625.734 337.102 624.701 337.078H546.285Z" fill="white"/>
<path id="Vector_30" d="M791.7 409.745C804.509 409.745 814.893 398.857 814.893 385.426C814.893 371.995 804.509 361.106 791.7 361.106C778.891 361.106 768.507 371.995 768.507 385.426C768.507 398.857 778.891 409.745 791.7 409.745Z" fill="#3F3D56"/>
<path id="Vector_31" d="M789.766 396.179L782.405 386.255L786.686 382.763L790.171 387.462L801.946 374.43L805.884 378.341L789.766 396.179Z" fill="white"/>
<path id="Vector_32" d="M603.885 687H70.9802C70.7181 686.994 70.4686 686.884 70.2852 686.691C70.1017 686.499 69.999 686.241 69.999 685.972C69.999 685.703 70.1017 685.445 70.2852 685.253C70.4686 685.061 70.7181 684.95 70.9802 684.944H603.885C604.147 684.95 604.396 685.061 604.58 685.253C604.763 685.445 604.866 685.703 604.866 685.972C604.866 686.241 604.763 686.499 604.58 686.691C604.396 686.884 604.147 686.994 603.885 687Z" fill="#CACACA"/>
</g>
</g>
<defs>
<clipPath id="clip0_0_1">
<rect width="815" height="547" fill="white" transform="translate(70 140)"/>
</clipPath>
</defs>
</svg>
