<svg width="1056" height="853" viewBox="0 0 1056 853" fill="none" xmlns="http://www.w3.org/2000/svg">
<g id="undraw_waiting__for_you_ldha 1" clip-path="url(#clip0_0_1)">
<path id="Moon" d="M385.682 394.451C435.146 394.451 475.245 354.352 475.245 304.888C475.245 255.424 435.146 215.325 385.682 215.325C336.217 215.325 296.119 255.424 296.119 304.888C296.119 354.352 336.217 394.451 385.682 394.451Z" fill="white"/>
<g id="Tree">
<path id="Tree_2" d="M417.676 794.501C417.676 794.501 480.328 627.431 445.789 524.618C411.251 421.805 383.941 425.821 383.941 425.821C383.941 425.821 337.354 413.773 279.522 449.115C221.69 484.457 206.428 494.899 173.496 480.441C140.564 465.983 134.138 443.492 53.816 445.902C53.816 445.902 96.3868 422.609 138.154 443.492C179.922 464.376 208.035 475.621 250.606 443.492C293.177 411.363 351.812 369.596 408.841 394.496C408.841 394.496 367.073 353.531 353.418 353.531C339.764 353.531 275.506 347.106 254.622 325.419C254.622 325.419 224.903 304.535 171.89 355.941C118.877 407.347 131.729 407.347 84.3385 403.331C36.9483 399.315 0 376.022 0 376.022C0 376.022 55.4224 398.512 89.1578 387.267C122.893 376.022 151.809 333.451 181.529 318.993C211.248 304.535 228.919 285.257 269.08 306.141C269.08 306.141 252.212 237.064 220.083 242.686C187.954 248.309 235.345 226.622 235.345 226.622C235.345 226.622 226.509 109.351 209.641 101.319C192.774 93.2869 203.216 72.4031 171.89 68.3869C171.89 68.3869 210.445 63.5676 217.674 90.0739C224.903 116.58 274.702 259.554 274.702 259.554C274.702 259.554 305.225 320.599 338.96 306.141C372.696 291.683 326.109 210.558 326.109 210.558L268.277 184.051C268.277 184.051 311.651 182.445 338.157 207.345C364.664 232.245 366.27 312.567 366.27 312.567C366.27 312.567 432.938 322.206 449.002 358.351C449.002 358.351 459.444 326.222 439.363 306.944C434.343 302.125 429.072 293.741 423.989 283.877C404.551 246.153 397.957 203.15 404.072 161.156C407.064 140.605 408.906 120.512 405.628 115.777C398.399 105.335 367.876 41.0773 365.467 24.2096C363.057 7.3419 367.876 -27.9999 367.876 -27.9999C367.876 -27.9999 368.68 15.3741 378.318 29.0289C387.957 42.6837 415.267 110.155 415.267 110.155C415.267 110.155 415.267 195.296 437.757 237.064C460.247 278.832 503.621 325.418 501.212 355.941V373.612C501.212 373.612 549.405 327.828 546.192 312.567C542.979 297.306 538.963 261.161 508.441 239.474C477.918 217.787 457.837 183.248 479.525 133.448C501.212 83.6482 501.212 74.8127 501.212 74.8127L486.754 136.661C486.754 136.661 478.721 192.083 501.212 211.361C523.702 230.638 553.421 265.98 553.421 265.98L546.995 150.316L567.879 196.099C567.879 196.099 612.86 138.267 665.872 118.99C718.885 99.7126 751.817 32.2418 751.817 32.2418L796.798 -3.10005L759.85 41.0773C759.85 41.0773 748.605 93.2868 685.15 130.235C621.695 167.183 580.731 221.803 578.321 255.538C575.911 289.273 573.502 318.993 573.502 318.993C573.502 318.993 692.379 314.977 718.885 262.767C745.392 210.558 747.801 106.942 773.504 90.0739C799.208 73.2062 847.401 52.3224 847.401 52.3224L793.585 96.4997C793.585 96.4997 782.34 132.645 784.75 158.348C787.159 184.051 767.079 208.148 767.079 208.148L751.817 253.128L734.95 291.683C734.95 291.683 804.027 293.29 840.172 334.254C876.317 375.218 966.278 387.267 966.278 387.267L915.675 400.922C915.675 400.922 867.482 384.857 821.698 355.138C775.914 325.419 780.733 298.912 723.705 328.631C666.676 358.351 588.763 383.251 588.763 383.251C588.763 383.251 633.743 362.367 714.869 412.97C795.995 463.573 674.708 404.134 638.563 423.412C602.418 442.689 585.55 418.592 571.092 466.786C556.634 514.979 530.128 646.708 560.65 720.605L591.173 794.501H417.676Z" fill="url(#paint0_linear_0_1)"/>
<path id="Vector" opacity="0.1" d="M720.104 262.767C698.569 305.184 616.065 315.791 585.873 318.277C585.027 329.166 584.468 336.052 584.468 336.052C584.468 336.052 703.345 332.036 729.852 279.826C756.358 227.617 758.768 124.001 784.471 107.133C787.197 105.344 790.178 103.51 793.325 101.66C794.208 98.4185 794.804 96.4997 794.804 96.4997L848.62 52.3224C848.62 52.3224 800.426 73.2062 774.723 90.0739C749.02 106.942 746.61 210.557 720.104 262.767Z" fill="black"/>
<path id="Vector_2" opacity="0.1" d="M581.588 181.621C581.413 201.397 578.846 213.159 578.846 213.159C578.846 213.159 623.807 155.351 676.806 136.062C679.938 134.08 683.116 132.129 686.368 130.235C749.823 93.2868 761.068 41.0772 761.068 41.0772L798.016 -3.10007L753.036 32.2418C753.036 32.2418 720.104 99.7126 667.091 118.99C630.955 132.13 598.557 163.18 581.588 181.621Z" fill="black"/>
<path id="Vector_3" opacity="0.1" d="M512.178 373V390.671C512.178 390.671 560.372 344.887 557.159 329.626C554.702 317.955 551.76 294.074 536.866 273.782C543.58 289.117 545.623 304.075 547.411 312.567C549.715 323.511 525.585 350.148 511.748 364.345C512.233 367.203 512.378 370.108 512.178 373Z" fill="black"/>
<path id="Vector_4" opacity="0.1" d="M447.531 251.733C447.913 252.547 448.306 253.348 448.723 254.123C461.041 276.998 479.61 301.313 493.504 323.648C482.275 301.53 462.733 276.236 447.531 251.733Z" fill="black"/>
<path id="Vector_5" opacity="0.1" d="M486.69 217.537C480.213 201.667 479.146 182.782 486.587 160.653C486.494 152.633 486.957 144.617 487.972 136.661L500.62 82.5576C498.288 90.3598 492.952 105.412 480.743 133.448C465.286 168.941 471.055 196.676 486.69 217.537Z" fill="black"/>
<path id="Vector_6" opacity="0.1" d="M841.391 334.254C816.324 305.845 775.425 296.367 752.705 293.225L745.916 308.742C745.916 308.742 814.994 310.349 851.139 351.313C871.183 374.03 907.771 387.85 936.396 395.659L967.497 387.267C967.497 387.267 877.536 375.218 841.391 334.254Z" fill="black"/>
<path id="Vector_7" opacity="0.1" d="M349.927 323.2C383.662 308.742 337.075 227.617 337.075 227.617L335.801 227.032C347.415 251.537 364.26 295.821 340.179 306.141C317.646 315.798 296.549 291.772 285.021 274.75C285.439 275.954 285.669 276.613 285.669 276.613C285.669 276.613 316.192 337.658 349.927 323.2Z" fill="black"/>
<path id="Vector_8" opacity="0.1" d="M459.969 375.41C459.969 375.41 470.134 344.076 451.037 324.73C455.72 341.396 450.221 358.351 450.221 358.351C437.793 330.39 395.092 318.293 376.388 314.248C377.114 323.557 377.237 329.626 377.237 329.626C377.237 329.626 443.904 339.265 459.969 375.41Z" fill="black"/>
<path id="Vector_9" opacity="0.1" d="M99.637 404.479C99.799 404.427 99.9635 404.379 100.124 404.326C133.86 393.081 162.776 350.51 192.495 336.052C222.215 321.594 239.885 302.316 280.046 323.2C280.046 323.2 273.02 294.441 259.405 275.546C263.915 285.41 267.559 295.647 270.298 306.141C230.137 285.257 212.466 304.535 182.747 318.993C153.028 333.451 124.112 376.022 90.3763 387.267C56.6409 398.512 1.21851 376.022 1.21851 376.022C1.21851 376.022 38.1668 399.315 85.557 403.331C90.9781 403.791 95.6038 404.196 99.637 404.479Z" fill="black"/>
<path id="Vector_10" opacity="0.1" d="M434.511 794.501C449.228 749.385 484.622 624.627 456.756 541.677C444.722 505.854 433.567 483.011 424.138 468.438C431.189 482.234 438.899 500.481 447.008 524.618C481.546 627.431 418.895 794.501 418.895 794.501H434.511Z" fill="black"/>
<path id="Vector_11" opacity="0.1" d="M120.829 452.363C130.677 453.362 140.262 456.137 149.121 460.552C182.108 477.045 206.583 487.505 236.384 475.356C243.173 471.77 250.766 467.332 259.523 462.049C260.206 461.551 260.882 461.072 261.572 460.552C304.143 428.423 362.779 386.655 419.807 411.555C419.807 411.555 408.282 400.254 395.362 389.523C343.091 376.7 290.744 414.119 251.824 443.492C209.253 475.621 181.141 464.376 139.373 443.492C97.6053 422.609 55.0345 445.902 55.0345 445.902C86.069 444.971 106.067 447.759 120.829 452.363Z" fill="black"/>
<path id="Vector_12" opacity="0.1" d="M406.846 115.777C410.124 120.512 408.283 140.605 405.29 161.156C399.175 203.15 405.77 246.153 425.208 283.877C427.766 288.94 430.624 293.845 433.766 298.569C415.257 261.418 409.051 219.335 415.038 178.215C418.031 157.664 419.872 137.571 416.594 132.836C409.366 122.394 378.843 58.1364 376.433 41.2687C375.711 34.7248 375.543 28.1316 375.93 21.5594C369.691 3.85625 369.095 -28 369.095 -28C369.095 -28 364.276 7.34191 366.685 24.2095C369.095 41.0772 399.617 105.335 406.846 115.777Z" fill="black"/>
<path id="Vector_13" opacity="0.1" d="M198.499 85.6294C205.578 86.496 213.721 88.668 219.932 93.7051C219.527 92.3347 219.174 91.1063 218.892 90.0739C211.663 63.5675 173.108 68.3869 173.108 68.3869C190.532 70.6207 195.032 78.0729 198.499 85.6294Z" fill="#62398C"/>
</g>
<g id="left-leaves" class="left-leaves-rotate">
<path id="Vector_14" d="M181.541 43.2646C200.093 54.9609 206.859 77.5642 206.859 77.5642C206.859 77.5642 183.547 81.2041 164.995 69.5078C146.444 57.8115 139.677 35.2082 139.677 35.2082C139.677 35.2082 162.989 31.5684 181.541 43.2646Z" fill="white"/>
<path id="Vector_15" d="M140.111 310.118C158.663 321.815 165.43 344.418 165.43 344.418C165.43 344.418 142.118 348.058 123.566 336.361C105.014 324.665 98.2476 302.062 98.2476 302.062C98.2476 302.062 121.56 298.422 140.111 310.118Z" fill="white"/>
<path id="Vector_16" d="M238.811 412.473C257.363 424.169 264.129 446.773 264.129 446.773C264.129 446.773 240.817 450.412 222.265 438.716C203.714 427.02 196.947 404.417 196.947 404.417C196.947 404.417 220.259 400.777 238.811 412.473Z" fill="white"/>
</g>
<g id="right-leaves" class="left-leaves-rotate">
<path id="Vector_17" d="M354.467 181.64C353.101 203.529 336.512 220.307 336.512 220.307C336.512 220.307 322.138 201.597 323.504 179.708C324.87 157.819 341.459 141.041 341.459 141.041C341.459 141.041 355.833 159.752 354.467 181.64Z" fill="white"/>
<path id="Vector_18" d="M517.264 82.2765C511.669 103.482 492.135 116.715 492.135 116.715C492.135 116.715 481.672 95.5679 487.267 74.3623C492.862 53.1567 512.396 39.9233 512.396 39.9233C512.396 39.9233 522.859 61.0709 517.264 82.2765Z" fill="white"/>
<path id="Vector_19" d="M693.748 98.811C687.172 119.733 667.043 132.043 667.043 132.043C667.043 132.043 657.576 110.431 664.152 89.509C670.727 68.5869 690.856 56.2771 690.856 56.2771C690.856 56.2771 700.323 77.8888 693.748 98.811Z" fill="white"/>
<path id="Vector_20" d="M884.498 331.665C872.587 350.079 849.906 356.582 849.906 356.582C849.906 356.582 846.538 333.229 858.45 314.815C870.361 296.4 893.042 289.897 893.042 289.897C893.042 289.897 896.41 313.25 884.498 331.665Z" fill="white"/>
</g>
</g>
<defs>
<linearGradient id="paint0_linear_0_1" x1="508" y1="-69" x2="483.139" y2="794.501" gradientUnits="userSpaceOnUse">
<stop offset="0.0104167" stop-color="white"/>
<stop offset="0.171875" stop-color="#A63E8F"/>
<stop offset="0.739583" stop-color="#3B31B5" stop-opacity="0.96"/>
</linearGradient>
<clipPath id="clip0_0_1">
<rect width="1055.52" height="852.056" fill="white"/>
</clipPath>
</defs>
</svg>
